<svg width="131" height="163" viewBox="0 0 131 163" fill="none" xmlns="http://www.w3.org/2000/svg">
<rect width="131" height="163" fill="#E8E0D5"/>
<g clip-path="url(#clip0_3_2)">
<path fill-rule="evenodd" clip-rule="evenodd" d="M22.916 147.61C22.7496 147.615 22.8021 147.566 22.8632 147.555C22.8808 147.573 22.8984 147.591 22.916 147.61ZM27.8286 151.273C32.4774 151.826 37.1319 151.32 41.7578 150.813C51.1295 150.116 60.4352 152.146 69.8253 151.527C81.5603 151.031 93.3271 150.1 105.023 151.669C108.258 151.744 113.418 152.62 112.245 147.596C110.704 134.681 108.643 121.831 106.436 109.015C104.566 101.83 104.431 89.403 99.3086 84.4067C98.5597 83.7208 95.8737 81.5022 95.1636 81.2043C91.6331 79.8858 85.2686 78.857 82.6428 76.062C80.5159 72.452 81.5053 67.5259 78.1981 64.6195C75.2995 62.2457 68.9731 62.7475 65.8742 64.53C63.4292 66.1203 63.0462 69.2091 61.5227 71.4933C61.147 72.0406 60.2543 73.3599 59.7503 73.7856C58.5233 74.9705 54.2139 76.2154 52.9694 76.4441C45.9465 77.8877 42.4448 78.7797 36.9212 83.461C22.4886 98.2409 24.5345 124.382 20.541 143.709C20.3775 145.834 19.0899 148.717 21.3872 150.085C23.3658 151.036 25.6922 150.932 27.8286 151.273Z" fill="white"/>
<path fill-rule="evenodd" clip-rule="evenodd" d="M81.0328 71.1485C81.05 71.0983 81.1306 71.0897 81.1428 71.1485C81.3397 72.0522 81.7088 73.0432 82.0829 73.8905C82.4631 74.7489 82.9826 75.5375 83.6391 76.207C85.0144 77.6099 86.7834 78.25 88.7235 78.2513L88.7699 78.2525C88.7789 78.1871 88.7889 78.1217 88.7983 78.0563L88.8115 77.9582C88.9888 76.6141 90.5792 76.6534 90.8897 77.6675C91.0474 77.7178 91.2051 77.7681 91.3616 77.8208L91.3929 77.8321C91.6563 77.9327 92.5486 78.3784 92.7125 78.2598C93.0731 77.9997 93.4851 78.2979 93.622 78.6302C93.8458 79.1743 93.8832 79.8468 93.9558 80.4371L93.9655 80.5137L93.9765 80.6056C99.0804 81.9363 101.945 87.0585 103.407 91.7773C104.199 94.3354 104.717 96.9744 105.238 99.5987C105.796 102.406 106.309 105.22 106.853 108.028C107.925 113.562 108.94 119.109 109.821 124.676L110.077 126.293C110.884 131.413 111.671 136.529 112.332 141.672C112.689 144.444 113.024 147.219 113.347 149.997C113.405 150.492 113.462 150.988 113.519 151.484L113.604 152.228C113.679 152.895 113.808 153.555 113.479 154.179C112.766 155.532 110.607 155.523 110.485 153.789C110.461 153.444 110.577 153.181 110.769 152.997L110.766 152.967C110.764 152.95 110.762 152.937 110.761 152.932C110.698 152.587 110.681 152.223 110.642 151.874C110.556 151.131 110.473 150.388 110.389 149.644C110.226 148.226 110.062 146.809 109.892 145.392C109.549 142.519 109.186 139.65 108.801 136.782L108.419 133.948C107.143 124.498 105.812 115.051 104.062 105.676C103.585 103.124 103.095 100.576 102.593 98.029C102.116 95.6169 101.58 93.2158 100.781 90.887C99.4753 87.0831 97.1929 83.5207 94.0242 81.0239C94.0731 81.5009 94.1085 81.9804 94.1538 82.4575C94.2699 83.6825 94.3934 84.9064 94.5181 86.1302C94.9716 90.5645 95.5866 94.9915 96.6355 99.3275C97.155 101.476 97.7883 103.596 98.5597 105.668C98.9399 106.688 99.3543 107.695 99.809 108.683C100.259 109.66 101.048 110.705 101.095 111.794C101.117 112.298 100.591 112.746 100.105 112.692C100.332 114.698 100.461 116.725 100.596 118.726C100.794 121.625 100.952 124.529 101.183 127.426C101.596 132.614 102.115 137.795 102.657 142.972C102.765 143.998 102.882 145.023 102.998 146.048L103.095 146.909C103.16 147.467 103.258 148.136 102.963 148.631C103.227 149.27 103.408 149.926 103.513 150.61C103.646 151.461 103.161 152.415 102.171 152.379C102.058 152.375 101.946 152.365 101.833 152.353C100.915 152.566 99.9998 152.754 99.0462 152.76C97.8286 152.768 96.6086 152.744 95.391 152.735C93.0353 152.719 90.6795 152.703 88.3237 152.684C79.7956 152.615 71.2638 152.619 62.7369 152.482L59.3253 152.427C56.1976 152.377 53.0696 152.319 49.9435 152.204C47.7907 152.126 45.638 152.046 43.4863 151.959L43.0482 151.942C41.1497 151.873 39.249 151.837 37.3714 151.546C37.3243 151.538 37.304 151.489 37.3113 151.446L37.3139 151.434L37.232 151.416C37.1843 151.622 36.1941 150.756 36.2015 150.181C35.7907 149.645 35.9826 148.789 36.0266 148.169C36.0694 147.564 36.1232 146.958 36.1709 146.354C36.2724 145.062 36.3592 143.77 36.4631 142.479C36.8824 137.272 37.2442 132.051 37.479 126.834C37.5975 124.203 37.6929 121.571 37.7931 118.941C37.8383 117.743 37.9011 116.545 38.0182 115.353L38.0486 115.055C38.177 113.846 38.1648 112.546 38.6086 111.407C38.6147 111.391 38.6354 111.391 38.6416 111.407C39.0902 112.515 39.133 113.804 39.2235 115.021C39.2394 115.016 39.2552 115.013 39.2724 115.01C39.8922 114.714 40.5181 114.448 41.1049 114.082C41.1843 114.033 41.2614 113.982 41.3396 113.932C42.2626 111.099 43.3323 108.313 44.3164 105.498C47.4961 96.398 49.2516 86.7065 49.6403 77.0703C47.2149 78.6388 44.5734 79.859 42.0055 81.1694L41.765 81.2925C39.2357 82.5899 36.8139 84.0627 35.0132 86.3129C33.4435 88.2726 32.4178 90.6602 31.4582 92.9619C30.4276 95.4354 29.4985 97.953 28.6489 100.494C26.9252 105.649 25.5902 110.931 24.5486 116.266C23.5205 121.532 22.7858 126.837 22.2944 132.179C22.0438 134.904 21.8151 137.631 21.6232 140.362C21.5254 141.744 21.4386 143.127 21.3579 144.512C21.3188 145.184 21.2895 145.857 21.2455 146.529C21.2186 146.917 21.2137 147.316 21.0865 147.684C20.9802 147.991 20.7919 148.247 20.6159 148.518C20.2944 149.012 19.4826 149.102 19.1807 148.518L19.0499 148.265C18.8769 147.929 18.7188 147.59 18.6953 147.201C18.6733 146.833 18.7186 146.449 18.7394 146.08C18.7797 145.333 18.8262 144.585 18.8726 143.839C18.9704 142.268 19.0792 140.697 19.2015 139.127C19.4447 135.983 19.7577 132.847 20.1513 129.718C21.5364 118.726 23.5364 107.793 27.353 97.3619C28.2968 94.783 29.3494 92.2248 30.5376 89.749C31.6868 87.3553 33.1403 85.0952 35.2504 83.4471C37.1927 81.9296 39.4504 80.9139 41.6938 79.9281L41.9741 79.805C44.4887 78.7025 46.9985 77.5155 49.6244 76.6963C49.5658 76.7037 49.5083 76.711 49.4583 76.7282C49.4007 76.7466 49.3666 76.6718 49.4021 76.6313C49.5511 76.4658 49.6134 76.2953 49.7847 76.1322C49.903 76.0194 50.026 75.9129 50.1525 75.8101L50.3346 75.6647C50.6677 75.3995 51.018 75.1284 51.4374 75.0359C52.0304 74.9059 52.3214 75.4467 52.155 75.8698C52.2406 75.7582 52.4704 75.7913 52.5303 75.9446C54.4814 80.992 55.7626 86.335 58.3885 91.1041C60.3274 94.6272 62.9288 97.8806 66.3812 100.008C68.2357 101.151 70.3581 102.029 72.5499 102.168C74.5181 102.292 76.4117 101.79 78.0855 100.754C81.33 98.7464 83.4485 95.222 84.9594 91.8068C86.6208 88.0469 87.8066 84.0406 88.5034 79.9791C86.2956 80.0098 83.9655 78.9993 82.4973 77.3524C81.7247 76.4854 81.1489 75.4295 80.8567 74.3038C80.5621 73.1683 80.6562 72.235 81.0328 71.1485ZM62.5107 68.1993C62.7798 67.7173 63.3764 67.5579 63.8641 67.7541C64.4056 67.9724 64.5683 68.4997 64.4913 69.0356C64.4019 69.6635 63.9997 70.3417 63.6869 70.8898C63.3593 71.4637 62.9375 71.9923 62.5009 72.4864C61.6795 73.4184 60.8004 74.2584 59.7578 74.9452C58.7199 75.6282 57.5462 76.1395 56.3397 76.4253L56.0528 76.4924C55.1143 76.7077 53.779 76.9543 52.9973 76.4426C52.9595 76.4179 52.9606 76.3676 52.9973 76.3431C53.4202 76.0476 53.9864 75.9948 54.4728 75.8552C55.0034 75.7019 55.5353 75.5277 56.0425 75.3093C57.0438 74.8777 58.0023 74.3087 58.8555 73.6293C59.7125 72.9476 60.5413 72.1346 61.1147 71.1963C61.4033 70.7256 61.649 70.2312 61.8848 69.7335C62.1233 69.2343 62.243 68.68 62.5107 68.1993Z" fill="#1C1917"/>
</g>
<g clip-path="url(#clip1_3_2)">
<path fill-rule="evenodd" clip-rule="evenodd" d="M75.7832 13.8661C82.797 13.8661 91.5815 21.9524 94.1525 25.3934C96.3141 28.2864 96.0083 43.1904 96.0083 52.0315C96.0083 53.8806 95.1813 57.3801 94.881 59.1488C93.7809 65.63 88.9878 71.0656 79.5014 71.0656C71.7771 71.0656 65.8328 68.5929 60.0846 62.2685C58.7732 60.8256 52.3686 65.991 51.0588 64.1308C47.6376 64.1308 44.7769 31.8239 51.494 22.1338C58.2111 12.4436 68.7694 13.8661 75.7832 13.8661Z" fill="white"/>
<path fill-rule="evenodd" clip-rule="evenodd" d="M79.7183 60.5123C78.9604 60.2074 78.2842 59.6986 77.7898 59.0488C77.6179 58.8229 77.5733 58.5843 77.6094 58.3661C77.6499 58.1208 77.7971 57.8984 77.9978 57.7492C78.1991 57.5996 78.4509 57.5258 78.6943 57.5635C78.9059 57.5961 79.1165 57.7104 79.2831 57.9473L79.318 57.9947C79.6119 58.3869 79.9949 58.7088 80.4314 58.9162C80.852 59.1161 81.3225 59.2094 81.8093 59.1552C82.7365 59.0519 83.3756 58.5573 84.0549 57.8856C84.1391 57.8008 84.2234 57.7133 84.308 57.6245C84.3615 57.5439 84.4357 57.4921 84.5181 57.465C84.6095 57.4348 84.713 57.4365 84.8078 57.4691C84.8992 57.5006 84.9809 57.5602 85.0357 57.6396C85.0877 57.715 85.1173 57.8082 85.1077 57.9153C85.0455 58.6114 84.6766 59.2326 84.1525 59.7204C83.5704 60.2622 82.7989 60.6369 82.0725 60.7684C81.2722 60.9132 80.4567 60.8094 79.7183 60.5123ZM82.45 49.7741C83.3014 50.2845 84.5987 51.4748 83.6828 52.7403C82.6046 53.8561 81.0524 52.5767 80.2875 51.9981C79.5782 51.5497 78.7813 52.703 79.4393 53.2266C84.9667 57.263 87.2098 49.9075 82.8806 49.1739C82.404 49.093 82.2269 49.6161 82.45 49.7741ZM72.5449 45.0787C72.639 43.927 74.4173 43.6655 74.5942 44.8051C74.7527 45.826 74.5662 46.7639 74.1 47.683C73.6545 48.5611 72.5348 48.1514 72.4502 47.3518C72.3367 46.28 72.4864 45.7952 72.5449 45.0787ZM86.0819 44.5688C86.3298 44.2486 86.6878 44.0299 87.1167 44.1535C88.4567 44.5397 88.0618 46.4161 87.5912 47.3295C87.3355 47.8255 86.5089 47.9513 86.1354 47.5145C85.5265 46.8024 85.235 45.3801 86.009 44.6786C86.0299 44.6423 86.0533 44.6058 86.0819 44.5688ZM74.0811 40.0392L74.2928 40.0026C74.9476 39.8909 75.7618 39.7836 76.225 40.3029C76.4707 40.5782 76.5552 41.09 76.225 41.3536C75.6441 41.8173 75.0019 41.6376 74.3058 41.6768C73.7321 41.7093 73.1808 41.803 72.6282 41.9588C71.4159 42.3005 70.4282 42.9244 69.3928 43.6094C69.2569 43.6993 69.1182 43.5279 69.1831 43.4026C69.7807 42.2479 70.939 41.2994 72.0992 40.7212C72.7184 40.4126 73.396 40.1566 74.0811 40.0392ZM84.8604 39.5219L85.0224 39.5546C86.7855 39.9181 89.0761 40.6443 89.911 42.3524C89.9428 42.5939 89.9092 42.6457 89.8819 42.6795L89.8728 42.6907C89.8503 42.7196 89.8323 42.7594 89.7261 42.7923C89.6967 42.7854 89.6669 42.7781 89.6369 42.7703C89.2542 42.6714 88.9514 42.5351 88.6582 42.3937L88.3404 42.2392C87.9717 42.0609 87.5997 41.889 87.2054 41.7622C86.3641 41.4915 85.4987 41.3008 84.6199 41.199C84.4294 41.177 84.246 41.1136 84.1013 41.0049C83.9639 40.9017 83.859 40.7589 83.8112 40.5691C83.7492 40.3234 83.767 40.1374 83.9006 39.9158C84.0011 39.7494 84.1449 39.634 84.31 39.5678C84.4783 39.5002 84.6699 39.4843 84.8604 39.5219Z" fill="black"/>
<path fill-rule="evenodd" clip-rule="evenodd" d="M54.7027 16.1417C58.7555 12.4151 64.1547 10.6224 69.6021 10.7547C72.4234 10.8234 75.2349 11.3664 77.8993 12.2965C79.2321 12.7634 80.5229 13.3727 81.7569 14.0618C82.2016 14.3096 82.6116 14.5999 83.0062 14.9082L83.1046 14.9856H83.1058C84.1644 15.3702 85.1094 16.0606 85.9666 16.8683C87.6849 16.7297 89.4167 16.8858 91.0781 17.4214C93.3904 18.1679 95.5311 19.535 97.0344 21.4763C98.7855 23.7364 99.3676 26.4778 99.1599 29.3078L99.1216 29.7886C98.9161 32.2885 98.5482 35.5041 96.5181 37.1467C96.3637 37.2715 96.1932 37.3664 96.0166 37.4238C97.3247 39.6885 98.3981 42.2029 99.0405 44.7422C101.492 54.4413 99.6074 64.5562 96.6589 73.9045C96.4168 74.6748 95.2643 75.1866 94.6776 74.4338C93.6301 73.088 92.1083 72.0618 90.3962 71.8695C89.3401 71.7509 88.2889 71.9657 87.2908 71.4813C86.8992 71.2903 86.5213 70.9782 86.2495 70.5986C84.5646 71.2441 82.7501 71.5487 80.9503 71.4738C77.9969 71.3514 74.8396 70.3177 72.8076 68.0506C72.4815 67.6866 72.3989 67.278 72.474 66.9097C72.7288 66.8179 72.9904 66.7494 73.2599 66.7066C75.8367 68.2414 78.677 69.267 81.7295 69.3315C83.4933 69.3687 85.2138 69.1193 86.6439 68.0062C86.9534 67.7653 87.2379 67.4985 87.5011 67.2119C90.4912 65.2678 92.5994 61.9658 93.6017 58.4288C94.5355 55.1305 94.4206 51.696 94.0995 48.3127L93.93 46.5274C93.6831 43.907 93.4539 41.2788 93.3897 38.6473L93.4091 38.6463C94.0406 38.6051 94.0451 37.606 93.4091 37.6476C91.7639 37.7552 90.1311 37.4824 88.491 37.6012C88.4773 36.8176 88.4214 36.0375 88.1935 35.2816C88.0635 34.8498 87.3195 34.7647 87.2407 35.2816C87.1352 35.9733 87.0966 36.661 87.0852 37.3558C84.6306 37.3228 82.1784 37.1141 79.7235 37.1999C79.2706 36.7117 79.1265 35.8462 78.9146 35.2441C78.8838 35.1554 78.8529 35.068 78.8208 34.9794C78.6346 35.8398 78.3708 36.6814 78.0237 37.5052L77.4216 37.5073C74.0056 37.5235 70.52 37.6267 67.1843 38.3437C66.9524 38.1638 66.8145 37.8499 66.7771 37.5649C66.5352 35.7103 66.1899 33.9049 65.5778 32.1375L65.4903 31.8881C65.4831 31.8675 65.4756 31.8455 65.4677 31.8223C65.0167 32.5581 64.4786 33.2438 63.8917 33.8824C63.5459 34.2588 63.1832 34.6187 62.811 34.9684C62.4495 35.3742 62.0758 35.7738 61.7136 36.1808C61.7278 36.2548 61.7402 36.33 61.7502 36.4065C61.861 37.2511 61.8725 38.1076 61.7913 38.9554C61.6446 40.4881 61.2165 41.965 60.5287 43.3313L60.5069 43.4681C60.4025 44.1084 60.2539 44.7701 59.9069 45.2523C60.3399 45.7427 60.6736 46.3285 60.867 46.9793C61.0392 47.5587 60.246 48.0608 59.8347 47.5866C59.508 47.21 59.145 46.8983 58.7462 46.6496C58.721 46.6841 58.6756 46.7011 58.6245 46.6723C57.5141 46.0493 55.6278 46.2378 54.5186 46.8246C53.1388 47.5537 52.6003 49.0506 52.7534 50.5674C52.9004 52.0169 53.5279 53.711 54.7447 54.4538C55.303 54.7946 55.7378 54.8233 56.3307 54.6598C56.5203 54.6078 56.7553 54.4482 56.8562 54.3689L56.9555 54.2884C57.3442 53.978 57.7062 53.7653 58.165 53.7572C58.6343 53.6093 59.106 53.8145 59.2855 54.3118L59.2965 54.3439C59.3805 54.5974 59.5337 54.9157 59.5003 55.3027C59.4657 55.7172 59.278 56.0943 58.9976 56.3976C58.9494 56.4501 58.8975 56.5025 58.8444 56.5512C63.6742 61.8358 64.2943 70.0705 61.8176 76.6723C61.7102 76.9619 61.5953 77.2478 61.4755 77.5312C61.0617 78.5025 59.4682 78.2016 59.2656 77.2391C59.2051 76.9507 59.1384 76.6635 59.0655 76.3789C58.9316 75.8529 58.7781 75.3318 58.6051 74.8183L58.5393 74.6261C58.3923 74.2016 58.2552 73.7734 58.107 73.3489L58.0922 73.3004C58.0866 73.2812 58.0804 73.2591 58.0736 73.2341L57.8229 73.7871L57.0607 75.4563C56.7041 76.2352 55.5709 75.8119 55.5288 75.0613L55.5278 75.0356C55.5241 74.897 55.5191 74.7597 55.5105 74.6236C55.4562 73.6036 55.282 72.6124 55.0053 71.6423L54.9055 71.7677C53.419 73.6251 51.6744 75.3661 49.2812 75.7946C48.6808 75.902 48.0015 75.2678 48.414 74.6548C48.5845 74.4014 48.7488 74.1417 48.9044 73.8783C48.7698 73.8146 48.6426 73.7484 48.5252 73.681C47.6173 73.1654 46.8613 72.4313 46.2363 71.5986C44.9109 69.8333 44.4366 67.6111 44.3204 65.4363C44.1969 63.138 44.397 60.7147 45.0184 58.4975C45.2876 57.5387 45.652 56.6186 46.0732 55.726C46.0436 55.6461 46.0152 55.5662 45.9868 55.4863C45.5322 54.2054 45.1592 52.8958 44.8491 51.5712C44.2241 48.897 43.8881 46.138 43.8473 43.3901C43.7732 38.4675 44.6132 33.4663 46.3833 28.8758C48.2115 24.1417 50.9611 19.5812 54.7027 16.1417ZM52.4261 59.1804C52.0904 58.6462 51.2505 59.1276 51.5622 59.6655L51.5738 59.6848C52.1062 60.5325 52.3557 61.4963 52.662 62.4413C52.8584 63.0493 53.8133 62.7896 53.6144 62.1754L53.5486 61.9703C53.2437 61.012 52.9657 60.038 52.4261 59.1804ZM55.3499 48.9831L55.5729 48.8741C56.2764 48.5348 56.8929 48.3036 57.7241 48.5999C58.837 48.9956 60.029 50.2553 59.2768 51.4775C59.0001 51.9282 58.5084 52.108 58.002 52.0019C57.1482 51.8229 56.9279 51.0458 56.4946 50.4079L56.42 50.2999C56.1559 49.9139 55.8218 49.3804 55.382 49.2291C55.282 49.1941 55.24 49.0368 55.3499 48.9831ZM55.9772 23.0332L56.0491 22.9682C56.5271 22.5412 55.8255 21.8371 55.3499 22.2616C53.1734 24.2054 52.4175 27.2478 51.2884 29.8408C51.0352 30.4238 51.8863 30.9332 52.142 30.3452C53.219 27.8708 53.9338 24.911 55.9772 23.0332ZM82.1325 22.1829C81.5638 21.9239 81.0662 22.7603 81.6129 23.0357L81.6334 23.0456C83.5555 23.9232 84.3732 25.9107 85.1563 27.7559C85.4058 28.3452 86.2569 27.8371 86.0099 27.2528L85.8686 26.9217C85.0514 25.0202 84.0983 23.0819 82.1325 22.1829ZM85.1452 20.9819C84.5424 20.7709 84.2842 21.7347 84.8821 21.9457C86.5114 22.5187 87.6293 23.7547 88.5718 25.1679C88.925 25.6973 89.7811 25.1979 89.4241 24.6635C88.3297 23.0231 87.0302 21.6461 85.1452 20.9819Z" fill="#D4875A"/>
<mask id="mask0_3_2" style="mask-type:alpha" maskUnits="userSpaceOnUse" x="72" y="38" width="24" height="41">
<rect x="72" y="38" width="24" height="41" fill="#D9D9D9"/>
</mask>
<g mask="url(#mask0_3_2)">
<path fill-rule="evenodd" clip-rule="evenodd" d="M75.6598 15.8306C77.487 15.6734 79.3474 16.0488 81.0874 16.7203C83.8625 17.791 86.411 19.6804 88.5049 22.1402C90.6628 24.6752 92.2588 27.8007 93.2293 31.2528C94.3995 35.4159 94.5747 39.861 94.9041 44.2068C95.0705 46.4025 95.3447 48.5647 95.6298 50.7391L95.6748 51.0826C95.9533 53.2011 96.11 55.3438 95.7253 57.459C95.0857 60.9745 93.1686 63.9586 90.8929 66.1636C86.218 70.6933 78.9405 73.4549 73.4974 69.2867C72.6553 68.6418 73.4533 66.9927 74.2754 67.6647C74.8539 68.1378 75.4668 68.5525 76.1241 68.8388C78.8704 70.035 81.8865 69.6089 84.6006 68.4962C87.2753 67.3997 89.8419 65.547 91.8155 63.0747C93.8885 60.4778 95.0373 57.2702 94.8713 53.6204C94.7724 51.4488 94.3665 49.3174 94.1412 47.1635C93.9416 45.2558 93.822 43.3377 93.684 41.4223L93.6335 40.7334C93.3411 36.8309 92.9211 32.8214 91.4643 29.2791C90.239 26.2989 88.4447 23.6476 86.2872 21.6001C84.0285 19.4564 81.3306 17.9572 78.5 17.398C75.1712 16.7405 71.9848 17.9362 69.208 20.1621C66.7452 22.1362 64.628 24.7742 63.0045 27.7675C62.2172 29.2188 61.5465 30.7688 60.9674 32.3583C60.4216 33.8559 60.0453 35.4255 59.6064 36.9692C59.9676 36.9561 60.3348 36.973 60.7076 37.0232C62.6199 37.2815 64.4016 38.4894 65.5358 40.3941C66.9219 42.7216 66.5473 45.5785 67.0887 48.2255C67.1306 48.4309 67.0593 48.632 66.9149 48.7457C66.094 49.3923 64.9954 49.4139 64.2009 48.6857C63.5114 48.0538 63.1877 46.9113 63.4668 45.913C63.5033 45.7829 63.6587 45.8059 63.6631 45.9454C63.7156 47.6443 65.0087 48.9525 66.2763 48.1441C65.7326 45.8617 66.0188 43.3125 64.9066 41.2509C62.9382 37.6021 58.8648 37.4513 56.0038 39.5083C54.4981 40.5906 53.3063 42.2181 52.4188 44.0385L52.1632 44.567C51.823 45.2731 51.4627 46.0719 51.3921 46.8494C51.3515 47.2982 51.4873 47.7198 51.9097 47.4937C52.2514 47.3109 52.5159 46.8843 52.7189 46.5176C53.065 45.8921 53.8604 46.4325 53.5745 47.0985L53.5648 47.1203C53.1487 48.0188 52.8925 49.009 52.8455 50.0406L52.8335 50.3263C52.8257 50.5345 52.8201 50.8304 52.8562 50.8412C52.8995 50.8542 53.2006 50.4306 53.2507 50.372C53.4923 50.0892 53.741 49.8582 54.0772 49.7828C54.5192 49.6841 54.9651 50.3506 54.5814 50.7875L54.5654 50.8051C54.223 51.1679 54.2383 51.8914 54.6165 52.2306C55.1503 52.7095 55.8074 51.9279 55.8849 51.2844L55.8875 51.2607C55.956 50.5654 56.7483 50.5408 56.7913 51.2607C56.8847 52.8229 55.3588 54.1322 54.1978 53.3441C53.7387 53.0326 53.4468 52.4623 53.3554 51.851C53.2088 51.9454 53.0507 52.0108 52.8836 52.0289C52.3395 52.0877 51.9526 51.6213 51.8646 50.9955C51.7621 50.2663 51.8229 49.4856 51.9805 48.7284C51.685 48.8152 51.3742 48.7821 51.0617 48.5623C50.1164 47.8974 50.3879 46.4186 50.7448 45.4202C52.2685 41.1586 55.4254 37.2917 59.3364 36.9848C59.3578 36.2328 59.4414 35.522 59.5782 34.7691C60.9159 27.4048 65.2495 20.5856 70.8913 17.3984C72.3989 16.5467 73.9977 15.9737 75.6598 15.8306ZM60.8647 45.2483L60.9183 45.2335C61.5279 45.0735 63.1319 44.8854 62.9386 46.1356C62.9294 46.1943 62.8593 46.1872 62.8468 46.1356C62.6575 45.3496 61.3711 45.9781 60.9955 46.1674C60.4778 46.4281 59.967 46.8128 59.5443 47.2599C58.6187 48.239 57.9982 49.6189 57.9038 51.1175C57.8103 52.6042 58.1641 54.2099 59.044 55.2852C59.4753 55.8123 60.0258 56.1701 60.6442 56.1964C61.1998 56.2199 61.8137 55.6928 62.3263 56.0015C62.4274 56.0624 62.5075 56.2295 62.4984 56.367C62.4811 56.6274 62.3855 56.8301 62.2432 56.9873C63.1015 58.8937 63.804 60.9116 64.8989 62.6452C65.4483 63.515 66.0708 64.3205 66.7758 65.0059C67.1109 65.3319 67.4752 65.6181 67.8509 65.8695C68.2911 66.1645 68.6721 66.3491 68.9863 66.8488C69.2542 67.2749 68.9862 68.0988 68.5445 68.1723C67.5045 68.3449 66.4937 67.32 65.7302 66.5523C64.9674 65.7852 64.308 64.839 63.7632 63.835C62.7169 61.907 62.0012 59.6326 61.715 57.3317C61.3828 57.4601 61.0087 57.4993 60.7273 57.5C59.9786 57.5021 59.2637 57.1738 58.6753 56.6191C56.5213 54.5885 56.2819 50.4193 57.802 47.7902C58.5294 46.5321 59.6347 45.6026 60.8647 45.2483ZM60.8782 50.0837C61.3777 50.0303 61.8768 50.1264 62.3462 50.334L62.5398 50.4195C62.9486 50.6017 63.3837 50.8159 63.679 51.1894C64.13 51.7603 63.6809 52.7496 63.0383 52.5308C62.3279 52.2889 61.7504 51.5596 61.0402 51.2537C60.4053 50.9804 59.6862 51.0191 59.1228 51.4898C59.0484 51.5521 58.9506 51.4294 58.9992 51.3391C59.4302 50.5392 60.1106 50.1658 60.8782 50.0837Z" fill="black"/>
</g>
<g clip-path="url(#clip2_3_2)">
<path fill-rule="evenodd" clip-rule="evenodd" d="M93.4886 50.7593C91.94 52.3047 89.3548 52.7482 87.2945 51.9193C82.0042 49.7846 84.5936 43.1263 88.6736 41.3382C89.1833 41.2155 89.864 40.9244 90.4848 40.8584C90.5409 40.8318 90.6631 40.9088 90.8112 40.836C95.3101 41.3211 96.3345 48.0659 93.4886 50.7593ZM76.4251 51.1548C74.6882 53.3797 71.4592 54.0661 68.8209 53.0319C63.6089 51.0495 65.4575 45.1452 69.0235 42.8305C76.5562 40.0968 79.6668 47.0525 76.4251 51.1548ZM65.1266 46.2251C65.1218 46.2229 65.1169 46.2218 65.112 46.2195C65.1395 46.2078 65.1671 46.1961 65.1945 46.1842C65.1856 46.2067 65.1759 46.229 65.1672 46.2516C65.1537 46.2426 65.1418 46.2321 65.1266 46.2251ZM97.0743 43.8201C96.6491 43.8209 96.0348 43.8884 95.6828 44.1734C94.8146 41.3458 91.6103 38.7289 88.8236 40.6371C86.6291 41.3187 85.0006 42.8304 84.0751 44.8401C82.4064 43.8814 79.7824 44.2908 78.3353 45.5585C77.3876 42.5341 75.0552 41.4751 72.2791 41.3187C69.249 40.8394 66.2288 43.6815 65.2865 45.9615C64.5029 45.8753 63.3321 45.6345 62.595 46.1015C57.811 44.8898 49.4468 44.2218 48.4742 44.895C47.7811 45.1519 47.4007 46.7319 48.3689 46.8171C49.2125 46.7014 48.2704 45.6594 49.1208 45.5457C53.6518 45.2744 58.0504 46.1557 62.5334 46.5255C62.9337 47.0455 64.2269 47.2195 64.9168 47.0105C63.8302 50.8782 66.1759 53.5095 69.6905 54.2976C75.1328 55.505 79.8676 50.8031 78.4445 45.9125C80.0931 45.1204 81.9894 45.1544 83.7853 45.5717C80.7843 56.2386 98.5722 55.76 95.794 44.5389C97.6428 45.4271 98.0444 43.9993 97.0743 43.8201Z" fill="#3D6B4F"/>
</g>
</g>
<defs>
<clipPath id="clip0_3_2">
<rect width="100" height="89.8876" fill="white" transform="translate(16 67.427)"/>
</clipPath>
<clipPath id="clip1_3_2">
<rect width="58.427" height="70.7865" fill="white" transform="translate(44.0898 9)"/>
</clipPath>
<clipPath id="clip2_3_2">
<rect width="50" height="17" fill="white" transform="translate(46 39)"/>
</clipPath>
</defs>
</svg>
