<svg width="482" height="383" viewBox="0 0 482 383" fill="none" xmlns="http://www.w3.org/2000/svg">
<path fill-rule="evenodd" clip-rule="evenodd" d="M47.8599 337.051C75.6909 341.245 104.027 341.456 132.089 339.933C143.195 339.108 154.335 338.96 165.432 340.014C171.99 340.498 200.74 342.679 203.089 336.852C201.61 305.825 198.616 274.533 189.43 244.693C185.653 234.097 182.408 225.303 175.035 216.535C172.712 214.141 167.7 209.12 164.829 207.482C162.341 206.064 161.301 206.57 159.873 204.174C158.454 201.527 157.407 197.107 155.391 195.24C153.339 193.338 150.298 194.018 146.528 194.631C147.221 185.346 142.901 182.981 136.95 181.216C126.489 177.255 116.158 179.245 113.525 191.879C108.643 191.879 105.901 193.963 102.937 195.966C101.725 196.784 102.568 198.87 101.12 199.513C98.4423 200.459 93.7097 200.228 91.1311 201.392C79.4053 206.686 68.9615 214.364 62.1027 225.576C46.7264 249.515 36.164 299.942 37.9917 328.315C37.1909 329.561 38.2983 331.348 38.5798 332.687C38.9351 333.853 40.0857 334.628 41.2864 334.495C42.9621 336.283 45.5539 336.681 47.8599 337.051Z" fill="#D4875A"/>
<path fill-rule="evenodd" clip-rule="evenodd" d="M163.057 206.78C162.886 206.686 163.036 206.444 163.208 206.524C171.462 210.365 177.794 217.105 182.249 224.892C186.862 232.956 189.492 242.11 191.759 251.058L191.84 251.382C194.258 260.954 196.313 270.625 198.163 280.319C200.037 290.137 201.541 300.015 202.751 309.934C203.35 314.838 203.884 319.752 204.3 324.674C204.508 327.135 204.697 329.597 204.867 332.06C204.934 333.045 204.998 334.03 205.053 335.016L205.092 335.755C205.126 336.426 205.207 337.099 205.04 337.76C204.895 338.331 204.591 338.847 204.323 339.371C203.794 340.406 202.342 340.236 201.771 339.371L201.605 339.119C201.227 338.539 200.912 338 200.794 337.278C200.679 336.578 200.675 335.845 200.623 335.139C200.528 333.839 200.448 332.539 200.356 331.239C200.162 328.502 199.945 325.767 199.705 323.034C199.23 317.639 198.72 312.249 198.094 306.869C196.981 297.308 195.585 287.772 193.94 278.286C192.332 269.02 190.299 259.848 188.179 250.688L187.959 249.74C184.246 233.746 178.524 215.328 163.057 206.78ZM75.1428 269.408C75.2035 269.248 75.4647 269.211 75.5088 269.408C76.0648 271.892 76.1198 274.45 76.2048 276.992C76.2885 279.501 76.2851 282.02 76.2482 284.53C76.1123 293.754 75.8571 302.97 75.6364 312.193C75.5261 316.806 75.4225 321.42 75.3431 326.034C75.313 327.764 75.2878 329.494 75.2668 331.225L75.2411 333.507C75.2283 334.516 75.2016 335.513 75.0776 336.521C74.9958 337.184 74.8216 337.817 74.4526 338.385C74.1908 338.788 73.8176 338.993 73.4538 339.267L73.3858 339.319C72.9218 339.683 72.4331 339.686 71.9736 339.319L71.8402 339.215C71.4012 338.874 71.0219 338.608 70.7417 338.07C70.3518 337.321 70.2894 336.507 70.2231 335.682C70.1226 334.431 70.1893 333.161 70.2023 331.907C70.2283 329.389 70.2634 326.873 70.3079 324.356C70.4713 315.126 70.7943 305.894 71.3829 296.681C71.6602 292.341 72.0361 287.987 72.5405 283.665L72.6365 282.855C72.7895 281.583 72.929 280.289 73.0862 278.99C70.7393 277.353 68.6763 275.365 66.9172 273.111C66.7876 272.945 67.0009 272.713 67.1572 272.873C68.9548 274.72 71.0158 276.192 73.2976 277.349C73.6714 274.631 74.1855 271.928 75.1428 269.408ZM114.351 187.132C114.383 187.108 114.434 187.097 114.464 187.132C114.969 187.716 114.866 188.608 114.883 189.347L114.885 189.416C114.921 190.497 114.928 191.575 114.924 192.657L114.913 196.1C114.911 196.573 114.872 197.066 114.897 197.542L114.91 197.727C115.175 197.996 115.298 198.385 115.208 198.776C115.192 199.277 114.928 199.695 114.542 199.958L115.368 201.121L116.195 202.283C117.899 204.68 119.622 207.057 121.417 209.389C123.248 211.766 125.201 214.054 127.245 216.254C128.243 217.329 129.259 218.389 130.298 219.425C130.72 219.846 131.153 220.257 131.581 220.672L132.007 221.089C132.258 221.339 132.575 221.586 132.742 221.902C132.84 222.089 132.862 222.549 132.898 222.625C133.213 223.312 132.675 224.409 131.781 224.066L131.822 224.039C131.984 223.927 131.88 223.925 131.509 224.034C131.274 224.033 131.055 223.98 130.849 223.874L130.788 223.841C130.499 223.695 130.241 223.413 130.006 223.187L129.948 223.132C129.411 222.633 128.899 222.104 128.384 221.582C127.31 220.493 126.26 219.381 125.244 218.239C123.215 215.961 121.293 213.591 119.472 211.147C117.618 208.658 115.894 206.041 114.411 203.317C113.849 202.283 113.333 201.229 112.838 200.163C111.876 199.857 111.653 198.841 111.72 197.697C111.365 196.877 111.045 196.039 110.855 195.184C110.83 195.067 110.982 194.956 111.072 195.059C111.38 195.406 111.665 195.775 111.939 196.154C112.105 195.352 112.314 194.614 112.412 194.143L112.839 192.066C110.434 191.942 107.8 192.922 106.142 194.637C106.053 195.084 105.706 195.404 105.369 195.821C104.983 196.299 104.646 196.835 104.395 197.395C103.838 198.637 104.152 200.467 103.071 201.378C102.958 201.473 102.832 201.539 102.702 201.58C103.215 204.075 102.983 206.825 102.971 209.357L102.971 209.58C102.974 212.413 102.878 215.249 102.768 218.08L102.656 220.883C102.51 224.62 102.416 228.358 102.782 232.075C104.453 230.607 106.181 229.205 107.968 227.87C109.144 226.992 110.343 226.145 111.563 225.33L112.555 224.672C113.744 223.882 114.961 223.068 116.262 222.502C117.965 221.762 119.583 222.016 121.226 222.775C122.863 223.532 124.451 224.41 126.056 225.23C127.688 226.064 129.325 226.89 130.959 227.719C132.043 228.268 133.63 228.764 134.424 229.774C134.475 229.551 134.534 229.328 134.603 229.106C134.524 228.767 134.554 228.401 134.746 228.052C137.415 223.186 139.885 218.204 142.337 213.228C143.578 210.71 144.759 208.162 146.002 205.645L147.211 203.194C147.413 202.785 147.616 202.377 147.82 201.97C148.125 201.36 148.442 200.756 148.751 200.147C148.881 199.89 149.045 199.635 149.171 199.375L149.232 199.245C149.234 199.239 149.527 198.325 149.301 198.412L149.282 198.421C149.166 198.486 149.074 198.342 149.148 198.25C149.468 197.857 149.914 198.205 150.097 198.568C150.6 199.568 149.678 201.138 149.323 202.095L149.304 202.149C148.204 205.238 146.958 208.27 145.681 211.291C143.234 217.084 140.605 222.787 137.981 228.501L137.95 228.599C138.51 228.174 139.107 227.788 139.618 227.412C140.909 226.463 142.237 225.562 143.563 224.663C145.994 223.015 148.492 221.476 151.03 219.997L151.539 219.702C152.807 218.969 154.063 218.375 155.568 218.595C156.967 218.799 158.267 219.544 159.53 220.15L159.661 220.212L163.565 222.053C163.147 220.402 162.695 218.759 162.224 217.122C161.304 213.929 160.293 210.763 159.196 207.626C158.171 204.694 157.063 201.794 155.892 198.918L155.539 198.054C155.061 196.87 154.586 195.578 153.221 195.214C151.856 194.849 150.291 195.39 149.044 194.618C148.931 194.548 148.945 194.363 149.082 194.329L149.852 194.136C151.297 193.78 152.991 193.421 154.357 193.768C155.844 194.145 157.074 195.383 157.795 196.67C158.597 198.102 159.162 199.704 159.771 201.231L159.867 201.471C160.566 203.198 161.238 204.936 161.881 206.685C163.166 210.181 164.336 213.719 165.395 217.289C165.906 219.009 166.39 220.738 166.856 222.47C166.989 222.969 167.21 223.573 167.391 224.203C167.599 224.404 167.795 224.628 167.979 224.884C168.285 225.308 168.066 225.805 167.686 226.059C167.671 226.492 167.574 226.9 167.341 227.25C166.435 228.615 164.039 228.263 164.136 226.428C164.151 226.147 164.261 225.879 164.428 225.652L164.423 225.616L164.404 225.548C163.988 225.35 163.571 225.13 163.13 224.914L159.033 222.906C157.847 222.324 156.532 221.425 155.212 221.203C153.982 220.997 152.684 221.906 151.627 222.455L151.558 222.49C149.003 223.789 146.467 225.132 143.941 226.485C142.707 227.146 141.49 227.834 140.262 228.503C139.234 229.062 138.126 229.865 136.971 230.181C136.478 230.561 135.892 230.51 135.421 230.223C135.637 231.545 135.623 232.901 135.689 234.253C135.778 236.06 135.792 237.872 135.821 239.681L135.833 240.359C135.91 244.359 135.952 248.36 135.967 252.361C136.022 266.608 135.863 280.859 135.826 295.106C135.807 302.264 135.664 309.428 135.477 316.583C135.397 319.615 135.231 322.643 135.052 325.671L134.953 327.322C134.744 330.806 134.621 334.329 133.971 337.766C133.886 338.214 133.121 338.225 133.046 337.766C132.448 334.083 132.414 330.319 132.299 326.593L132.275 325.848C132.137 321.847 132.071 317.849 132.085 313.846C132.136 299.593 132.51 285.35 132.815 271.101C132.969 263.943 133.072 256.781 133.311 249.624C133.43 246.043 133.565 242.465 133.725 238.885C133.797 237.287 133.866 235.69 133.973 234.095L134.021 233.411C134.054 232.965 134.081 232.524 134.114 232.087C132.66 232.614 131.331 231.639 130.023 230.972C128.516 230.202 127.01 229.432 125.503 228.664L123.994 227.898L120.974 226.37C119.615 225.681 118.567 224.996 117.117 225.804C111.893 228.711 107.092 232.58 102.742 236.64C101.908 237.419 100.145 237.21 99.9336 235.905C99.031 230.33 99.58 224.675 100.041 219.084L100.211 217.008C100.417 214.528 100.641 212.049 100.94 209.58C101.073 208.475 101.206 207.371 101.353 206.269L101.467 205.442C101.651 204.135 101.771 202.836 102.163 201.583C102.04 201.543 101.921 201.478 101.814 201.378C100.634 200.268 101.203 198.341 101.741 197.02C102.273 195.716 103.083 194.578 104.099 193.599C104.32 193.385 104.632 193.247 104.946 193.24C107.407 191.622 110.107 190.815 112.917 191.698C112.996 191.324 113.076 190.95 113.161 190.577L113.247 190.204C113.466 189.279 113.547 187.751 114.351 187.132ZM139.575 333.222C140.339 333.013 141.175 333.233 141.734 333.788C142.294 334.343 142.515 335.173 142.305 335.93C142.2 336.303 142.009 336.627 141.734 336.902C141.477 337.156 141.177 337.336 140.835 337.445L140.755 337.468L140.63 337.52C140.247 337.622 139.864 337.622 139.482 337.52C139.116 337.418 138.798 337.234 138.528 336.969C138.261 336.701 138.075 336.386 137.973 336.023C137.87 335.643 137.87 335.263 137.973 334.884L138.025 334.76C138.13 334.387 138.32 334.063 138.595 333.788C138.872 333.515 139.199 333.326 139.575 333.222ZM184.922 257.719C185.048 257.576 185.251 257.759 185.173 257.911C183.983 260.225 182.658 262.522 181.354 264.777C181.459 265.402 181.562 266.022 181.681 266.626C182.189 269.202 182.811 271.731 183.216 274.331C184.673 283.676 185.43 293.124 186.079 302.553C186.73 312.017 186.813 321.484 186.911 330.966C186.92 331.788 186.282 332.743 185.429 332.898C185.038 332.969 184.745 332.955 184.355 332.898C183.467 332.768 182.911 331.758 182.873 330.966C182.618 325.667 182.275 320.374 181.878 315.083C181.174 305.703 180.744 296.297 180.176 286.907L179.975 283.625C179.76 280.069 179.564 276.51 179.5 272.949C179.457 270.589 179.584 268.231 179.506 265.874C179.434 263.698 179.212 261.332 179.695 259.194C179.713 259.114 179.841 259.094 179.878 259.171C180.38 260.221 180.699 261.362 180.944 262.527C182.24 260.901 183.559 259.272 184.922 257.719ZM100.052 200.243C100.234 200.23 100.227 200.501 100.052 200.521C97.5097 200.814 95.0534 201.84 92.6525 202.713L92.4469 202.787C90.0213 203.66 87.6565 204.676 85.3807 205.886C80.9312 208.252 76.8453 211.303 73.2328 214.796C58.8097 228.739 52.2367 248.846 47.4204 267.741C44.7443 278.239 42.8413 288.915 41.6079 299.672C40.998 304.992 40.5668 310.332 40.3155 315.681C40.1868 318.422 40.1056 321.166 40.0718 323.91C40.0543 325.315 40.0492 326.721 40.0509 328.127C40.0517 328.771 40.1676 329.582 39.994 330.207C39.833 330.787 39.3788 331.297 39.0428 331.78C38.6447 332.352 37.9291 332.322 37.5254 331.78L37.3766 331.582C36.946 331.016 36.5248 330.474 36.4633 329.733C36.3974 328.939 36.4439 328.121 36.4409 327.324C36.4341 325.717 36.4541 324.11 36.4865 322.504C36.5489 319.426 36.6712 316.349 36.8529 313.275C37.2219 307.037 37.8292 300.811 38.6988 294.622C40.2445 283.622 42.5614 272.726 45.5962 262.035C48.4593 251.95 51.8511 241.894 56.6831 232.552C61.1694 223.878 67.055 215.809 74.8211 209.747C78.4326 206.928 82.364 204.579 86.6026 202.809C88.7404 201.917 90.9853 201.189 93.2683 200.773C95.526 200.363 97.7738 200.42 100.052 200.243ZM140.013 315.395C140.416 315.392 140.866 315.48 141.212 315.701L141.674 316.056C141.799 316.215 141.924 316.376 142.048 316.536C142.337 316.91 142.375 317.515 142.315 317.96C142.301 318.257 142.212 318.534 142.048 318.79L141.696 319.242C141.358 319.516 141.076 319.711 140.666 319.843C140.452 319.911 140.246 319.926 140.04 319.915L139.971 319.911L140.013 319.917L139.941 319.908C139.874 319.903 139.807 319.896 139.739 319.887C139.693 319.881 139.647 319.877 139.602 319.871C139.558 319.867 139.515 319.866 139.47 319.87C138.95 319.918 138.426 319.625 138.057 319.289C137.724 318.986 137.425 318.343 137.471 317.887L137.491 317.696C137.526 317.375 137.555 317.248 137.692 316.925C137.826 316.611 138.012 316.334 138.266 316.1C138.751 315.652 139.346 315.4 140.013 315.395ZM138.401 291.875C139.092 291.128 140.279 291.073 141.136 291.525C141.345 291.635 141.536 291.812 141.72 291.96C142.184 292.332 142.366 293.003 142.392 293.568C142.417 294.127 142.12 294.791 141.72 295.177L141.623 295.27C141.385 295.501 141.043 295.701 140.709 295.762C140.17 295.86 139.717 295.857 139.216 295.647C138.785 295.467 138.413 295.177 138.16 294.783L138.119 294.717C138.102 294.689 138.086 294.661 138.07 294.632L138.048 294.589C137.568 293.673 137.697 292.636 138.401 291.875ZM138.759 268.232C139.071 268.135 139.382 268.121 139.694 268.19C139.905 268.191 140.102 268.244 140.285 268.349C140.484 268.404 140.656 268.504 140.802 268.648C140.978 268.751 141.119 268.89 141.223 269.065C141.43 269.29 141.57 269.553 141.643 269.856L141.726 270.474L141.643 271.093L141.406 271.648C141.341 271.732 141.276 271.816 141.21 271.9C141.105 272.075 140.965 272.215 140.788 272.319C140.673 272.432 140.542 272.517 140.395 272.575C139.873 272.947 139.177 273.068 138.559 272.899C138.192 272.797 137.873 272.612 137.602 272.346C137.334 272.077 137.148 271.761 137.045 271.397L137.003 271.106C136.948 270.716 136.939 270.5 137.051 270.004C137.1 269.786 137.241 269.478 137.315 269.348C137.632 268.796 138.15 268.417 138.759 268.232ZM165.82 251.222C166.715 251.216 167.61 251.217 168.505 251.227L169.176 251.236C170.3 251.254 171.262 251.139 172.146 251.912C172.787 252.473 172.504 253.415 171.896 253.838C170.974 254.478 169.817 254.156 168.757 254.086C167.639 254.011 166.52 253.95 165.401 253.9C163.234 253.804 161.066 253.742 158.896 253.733C156.732 253.724 154.564 253.744 152.4 253.779C150.197 253.814 147.904 254.018 145.714 253.792C145.414 253.761 145.346 253.368 145.643 253.266C147.706 252.558 150.028 252.328 152.19 252.057C154.421 251.778 156.652 251.58 158.896 251.452C161.202 251.321 163.511 251.238 165.82 251.222ZM138.755 244.265L138.829 244.267C139.223 244.268 139.591 244.36 139.935 244.543L140.008 244.583L140.481 244.945C140.771 245.235 140.971 245.576 141.082 245.969L141.165 246.585C141.178 246.904 141.11 247.202 140.964 247.478C140.87 247.766 140.709 248.014 140.481 248.224C140.269 248.45 140.019 248.61 139.729 248.704C139.472 248.837 139.197 248.905 138.903 248.905L138.829 248.903C138.407 248.902 138.014 248.796 137.65 248.587L137.176 248.224C136.887 247.935 136.686 247.594 136.576 247.201L136.492 246.585C136.48 246.266 136.547 245.968 136.693 245.692C136.788 245.404 136.949 245.156 137.176 244.945C137.388 244.72 137.639 244.56 137.929 244.466C138.186 244.332 138.461 244.265 138.755 244.265ZM145.682 189.807C146.186 189.083 147.098 189.727 146.967 190.308C147.002 191.942 147.086 193.527 147.461 195.127C147.632 195.86 147.857 196.593 148.204 197.264L148.349 197.547C148.798 198.426 149.146 199.255 148.542 200.22C148.257 200.675 147.742 201.017 147.185 200.993C144.71 200.887 144.37 197.47 144.22 195.562C144.065 193.598 144.547 191.439 145.682 189.807Z" fill="black"/>
<path d="M114.5 200.5V187.5L146 188.5L150 194.5V200.5L137 227.5L134.5 229L131 222.5L114.5 200.5Z" fill="white" stroke="black"/>
<path fill-rule="evenodd" clip-rule="evenodd" d="M162.716 124.46C156.314 115.717 144.525 113.203 134.302 115.329C114.316 118.944 95.221 134.072 91.6895 154.645C86.1801 167.092 89.6983 186.697 105.721 188.161C108.003 188.289 110.262 187.768 112.547 188.049C126.495 190.259 142.976 199.721 155.322 188.563C155.941 189.003 156.756 189.215 157.45 188.949C162.705 186.934 162.952 181.106 163.4 176.315C163.978 170.124 164.521 163.93 165.027 157.734C165.208 147.047 169.478 133.694 162.716 124.46Z" fill="white"/>
<path fill-rule="evenodd" clip-rule="evenodd" d="M123.968 102.182C132.382 101.738 147.887 105.562 155.228 110.045C167.188 117.349 168.116 131.919 167.628 134.438C167.442 135.4 166.85 136.289 165.923 135.994C166.71 142.613 166.648 146.396 166.78 153.054L166.871 157.499C166.929 160.462 166.98 163.426 166.993 166.39C167.295 166.278 167.594 166.415 167.704 166.703C167.732 166.773 167.636 166.811 167.589 166.771C167.057 166.31 167.436 167.36 167.619 167.574C167.873 167.868 168.294 168.144 168.591 168.396L169.395 169.087L170.199 169.776C171.238 170.665 172.243 171.556 173.212 172.514L173.475 172.777C175.241 174.557 177.455 176.279 178.554 178.581C179.604 180.779 179.28 183.271 177.536 185.023C176.901 185.659 176.159 186.145 175.354 186.513C176.788 188.855 176.997 191.951 175.501 194.36C174.004 196.778 171.123 198.044 168.35 197.85C168.265 198.194 168.133 198.53 167.958 198.849C166.858 200.854 164.67 201.115 162.596 201.007L162.515 201.003C157.845 200.737 153.353 199.576 149.263 197.321C147.844 197.416 146.578 196.26 146.301 194.992C145.556 194.965 144.806 194.903 144.041 194.817C141.772 194.557 139.446 194.073 137.446 192.929C137.139 192.754 137.282 192.291 137.623 192.283C140.06 192.228 142.499 192.395 144.932 192.133C147.164 191.894 149.544 191.283 151.625 190.452C155.366 188.956 158.574 186.418 160.344 182.901C162.636 178.348 162.428 172.881 162.677 167.935C162.953 162.461 163.293 156.992 163.656 151.523L163.833 148.901C164.186 143.792 164.478 141.058 165.372 135.755C162.677 135.994 151.483 131.996 148.001 125.458C141.394 139.368 107.92 133.675 106.435 155.089C106.423 155.271 106.133 155.22 106.122 155.047L106.095 154.559C106.081 154.318 106.069 154.08 106.061 153.845L106.054 153.61L105.528 153.616C105.528 153.682 105.434 153.705 105.411 153.635C104.914 152.238 102.55 152.688 101.521 153.02C100.594 153.32 99.7207 153.781 98.9367 154.35C97.3625 155.491 96.1418 157.027 95.7371 158.948C94.968 162.596 97.3092 166.312 100.417 168.073C102.377 169.182 104.524 169.899 106.403 171.156C108.063 172.266 109.609 173.566 110.949 175.043C116.258 180.895 119.381 189.772 116.869 197.497C116.678 198.086 116.171 198.76 115.5 198.856C114.39 199.014 113.28 198.854 112.658 197.805C112.415 197.395 112.3 196.928 112.326 196.467C111.895 197.934 110.5 199.384 109.213 199.929C107.46 200.673 105.485 200.451 103.939 199.492L103.743 199.635C101.228 201.472 98.4185 203.146 95.196 202.808C92.8612 202.563 90.569 201.383 89.278 199.524C87.561 200.481 85.7269 201.244 83.8352 201.764L83.6339 201.819C81.0312 202.522 77.7114 203.166 75.2821 201.738C72.9494 200.367 72.174 197.372 72.7215 194.872C72.7875 194.574 72.8706 194.284 72.9729 194.003C71.2175 194.096 69.4643 193.929 67.7984 193.418C66.0963 192.895 64.473 191.892 63.6571 190.264C62.7369 188.423 62.9818 186.331 63.6678 184.456C64.7649 181.449 66.5288 178.773 68.7251 176.442C70.8372 174.199 73.3849 172.295 76.0326 170.709L76.479 170.444C78.8624 169.033 81.7368 167.38 84.5531 167.489C84.5446 167.453 84.5382 167.419 84.5339 167.384C84.1079 164.27 84.1568 161.096 84.0567 157.957C83.9651 155.07 83.8607 152.183 83.7926 149.294C83.6818 144.382 83.718 139.449 84.3635 134.571C84.9365 130.243 85.9676 126.022 87.8486 122.059C89.8234 117.896 92.7973 114.343 96.4699 111.549C104.177 105.684 114.358 102.689 123.968 102.182ZM97.7885 159.874C98.6278 158.304 100.539 157.809 102.215 158.093C104.565 158.49 106.163 160.527 107.535 162.28C108.975 164.116 105.971 165.847 105.198 164.068L105.014 163.647C104.394 162.236 103.661 160.748 102.394 159.828C101.048 158.851 99.1476 158.708 97.9589 160.005C97.8737 160.1 97.731 159.978 97.7885 159.874Z" fill="black"/>
<path fill-rule="evenodd" clip-rule="evenodd" d="M144.345 179.274C142.913 178.695 141.635 177.728 140.701 176.493C140.376 176.063 140.292 175.61 140.36 175.195C140.437 174.729 140.715 174.306 141.094 174.023C141.474 173.739 141.95 173.598 142.41 173.67C142.81 173.732 143.208 173.949 143.523 174.399L143.589 174.489C144.144 175.235 144.868 175.847 145.692 176.241C146.487 176.621 147.376 176.798 148.296 176.695C150.048 176.499 151.255 175.559 152.539 174.282C152.698 174.121 152.857 173.955 153.017 173.786C153.118 173.633 153.258 173.534 153.414 173.483C153.586 173.425 153.782 173.429 153.961 173.491C154.134 173.55 154.288 173.664 154.392 173.815C154.49 173.958 154.546 174.135 154.528 174.339C154.41 175.662 153.713 176.842 152.723 177.769C151.623 178.799 150.165 179.511 148.793 179.761C147.281 180.036 145.74 179.839 144.345 179.274ZM149.506 158.866C151.115 159.836 153.566 162.099 151.835 164.504C149.798 166.624 146.866 164.193 145.42 163.093C144.08 162.241 142.575 164.433 143.818 165.428C154.261 173.099 158.499 159.12 150.32 157.726C149.419 157.572 149.085 158.566 149.506 158.866ZM130.791 149.943C130.969 147.754 134.329 147.257 134.663 149.423C134.963 151.363 134.61 153.146 133.73 154.892C132.888 156.561 130.772 155.783 130.612 154.263C130.398 152.226 130.681 151.305 130.791 149.943ZM156.368 148.974C156.837 148.365 157.513 147.95 158.324 148.185C160.855 148.919 160.109 152.485 159.22 154.22C158.737 155.163 157.175 155.402 156.469 154.572C155.319 153.219 154.768 150.516 156.231 149.183C156.27 149.114 156.314 149.044 156.368 148.974ZM133.694 140.365L134.094 140.296C135.331 140.084 136.869 139.88 137.745 140.867C138.209 141.39 138.369 142.362 137.745 142.863C136.647 143.745 135.434 143.403 134.118 143.478C133.035 143.539 131.993 143.717 130.949 144.014C128.658 144.663 126.792 145.849 124.836 147.151C124.579 147.321 124.317 146.996 124.44 146.757C125.569 144.563 127.757 142.76 129.949 141.662C131.119 141.075 132.4 140.589 133.694 140.365ZM154.06 139.382L154.367 139.445C157.698 140.135 162.026 141.515 163.603 144.762C163.663 145.221 163.6 145.319 163.548 145.383L163.531 145.405C163.488 145.46 163.454 145.535 163.254 145.598C163.198 145.585 163.142 145.571 163.085 145.556C162.362 145.368 161.79 145.109 161.236 144.84L160.636 144.547C159.939 144.208 159.236 143.881 158.491 143.64C156.902 143.126 155.266 142.763 153.606 142.57C153.246 142.528 152.9 142.407 152.626 142.201C152.367 142.005 152.168 141.733 152.078 141.373C151.961 140.906 151.995 140.552 152.247 140.131C152.437 139.815 152.709 139.595 153.021 139.469C153.339 139.341 153.701 139.311 154.06 139.382Z" fill="black"/>
<path fill-rule="evenodd" clip-rule="evenodd" d="M430.498 343.882C417.562 344.244 405.342 344.643 392.43 343.882C371.769 342.603 311.136 344.908 297.808 343.882C296.802 343.804 293.343 344.908 293.271 343.882C292.685 336.736 292.306 264.447 294.046 259.473C295.787 254.499 304.379 230.588 315.326 219.438C318.379 216.426 323.024 215.259 325.59 211.778C327.803 207.983 327.631 205.755 329.816 203.758C330.764 202.891 333 202.54 334.662 201.337C336.333 199.676 334.751 196.02 335.436 193.707C336.85 187.931 342.057 184.226 347.748 183.353C355.659 181.459 364.01 183.25 367.799 189.466C369.209 191.779 368.458 194.592 370.193 198.299C370.069 201.101 373.339 201.778 375.293 202.889L379.175 206.813C391.132 213.543 405.199 217.178 415.677 226.221C424.585 235.261 433.445 245.71 437.397 257.94C438.215 261.273 438.482 264.718 438.822 268.123C439.79 278.075 442.485 287.735 444.805 297.429C447.45 309.642 449.916 322.608 446.351 334.937C445.323 337.547 432.838 343.76 430.498 343.882Z" fill="white"/>
<path fill-rule="evenodd" clip-rule="evenodd" d="M368.484 190.461C368.38 190.123 367.934 190.218 367.901 190.539C367.565 193.726 367.987 197.057 368.393 200.223C368.587 201.751 368.699 203.341 368.995 204.847C369.033 205.008 369.069 205.171 369.103 205.332C369.006 205.505 368.718 205.699 368.581 205.832L367.985 206.412L366.79 207.57C364.451 209.835 362.112 212.103 359.773 214.369L356.34 217.698C355.163 218.839 353.826 219.932 352.793 221.204C352.233 221.895 352.106 222.742 352.658 223.482C352.93 223.848 353.42 224.114 353.917 224.169C353.723 224.439 353.573 224.746 353.478 225.086C353.283 225.78 353.984 226.631 354.73 226.342C355.577 226.016 356.277 225.433 357.139 225.154C358.009 224.871 358.956 224.816 359.858 224.968C360.272 225.038 360.678 225.141 361.073 225.272C356.845 227.219 352.271 228.337 347.606 228.497C346.656 228.529 345.707 228.516 344.763 228.453C343.174 228.349 341.596 228.109 340.045 227.72C338.826 227.413 337.62 227.029 336.449 226.564C335.875 226.335 335.306 226.084 334.757 225.799L334.709 225.77C334.585 225.693 332.289 224.39 332.249 224.195C332.209 223.999 332.209 223.931 332.284 223.76C332.334 223.647 332.428 223.551 332.566 223.472C333.275 223.169 334.01 222.887 334.784 222.882C336.568 222.871 338.513 224.19 339.988 225.089C341.608 226.076 343.098 227.229 344.657 228.299C344.693 228.324 344.733 228.335 344.771 228.335C344.936 228.335 345.088 228.132 344.983 227.973C343.865 226.327 342.357 224.957 340.779 223.76L340.143 223.284C338.698 222.206 337.008 221.012 335.251 220.751C333.099 220.434 330.851 221.777 328.93 222.563L325.529 223.955C324.923 224.203 324.263 224.414 323.653 224.695L325.078 220.234C325.79 218.003 326.501 215.771 327.204 213.538L327.341 213.101C328.041 210.834 328.685 208.476 329.852 206.405C330.13 205.908 330.449 205.441 330.764 204.97C331.092 204.482 331.214 203.943 331.626 203.507C332.441 202.643 333.61 202.136 334.725 201.804C334.998 201.724 334.917 201.364 334.662 201.337C333.517 201.216 332.426 201.483 331.391 201.966L330.961 202.172C329.983 202.635 329.029 203.065 328.303 203.896C326.647 205.794 325.787 208.184 324.996 210.542L324.785 211.175C324.49 211.078 322.48 211.691 322.229 211.837C314.697 215.022 308.896 220.952 304.653 227.901C300.006 235.516 297.475 244.218 295.385 252.828C294.741 255.486 294.124 258.151 293.531 260.823C296.171 261.839 298.976 262.37 301.447 263.801C302.388 264.346 301.538 265.808 300.594 265.261C298.28 263.921 295.644 263.426 293.167 262.484C291.824 268.669 290.629 274.888 289.628 281.132C286.554 300.298 284.613 319.775 284.735 339.203C284.737 339.632 284.864 340.111 285.099 340.524C284.961 340.456 284.853 340.376 284.792 340.279C284.013 339.055 282.059 340.19 282.842 341.42L282.957 341.598C283.545 342.505 284.094 343.199 285.128 343.711C286.17 344.227 287.298 344.313 288.447 344.343C292.353 344.446 296.262 344.513 300.173 344.561C300.709 340.377 300.927 336.152 301.666 331.993C301.856 330.923 303.485 331.376 303.296 332.442C302.582 336.459 302.354 340.537 301.856 344.581C310.216 344.671 318.58 344.672 326.934 344.696C338.254 344.729 349.574 344.706 360.894 344.699L365.746 344.698C378.823 344.698 391.901 344.656 404.978 344.569L408.088 344.547C409.325 337.251 410.167 329.892 410.183 322.478C410.185 321.39 411.876 321.388 411.873 322.478C411.858 329.884 411.025 337.243 409.799 344.537C412.895 344.524 415.99 344.535 419.087 344.645L420.663 344.701C423.816 344.809 426.976 344.876 430.123 344.624C433.618 344.343 437.152 343.7 440.285 342.054C441.696 341.311 442.939 340.362 444 339.245C442.921 338.617 441.826 338.014 440.781 337.33C439.874 336.736 440.72 335.272 441.634 335.87C442.761 336.608 443.945 337.25 445.105 337.932C445.945 336.811 446.634 335.566 447.158 334.223C447.984 332.103 448.303 329.823 448.58 327.578C448.907 324.935 449.042 322.269 449.042 319.606C449.042 314.006 448.453 308.422 447.631 302.889C446.845 297.588 445.806 292.33 444.707 287.088L444.557 286.374C443.473 281.221 442.44 276.053 441.198 270.937C440.049 266.205 438.722 261.496 437.14 256.878C435.732 257.748 434.258 258.51 432.872 259.418C431.959 260.015 431.111 258.552 432.019 257.958C433.498 256.99 435.075 256.185 436.568 255.239C434.799 250.294 432.722 245.464 430.233 240.838C425.247 231.575 418.529 223.288 409.924 217.171C405.616 214.111 400.89 211.606 395.927 209.784C390.867 207.925 385.624 206.906 380.262 206.488C380.109 206.475 380.023 206.617 380.029 206.748L380.032 206.773L379.82 206.807C379.742 206.276 379.582 205.762 379.275 205.291C378.578 204.218 377.256 203.529 376.199 202.869L375.949 202.713C374.692 201.934 373.366 201.166 371.904 200.893C371.853 200.884 371.822 200.937 371.856 200.978C372.82 202.083 374.052 202.928 375.182 203.863L375.442 204.08C376.378 204.851 377.684 205.725 377.718 207.014C377.758 208.531 377.448 210.11 377.336 211.623C377.224 213.132 377.146 214.639 377.106 216.152C376.96 221.574 377.135 226.997 377.615 232.397L375.494 230.976C372.193 228.766 368.881 226.562 365.501 224.492C363.456 223.239 361.157 222.167 358.706 222.216C358.02 222.229 357.244 222.328 356.501 222.54C357.301 221.781 358.068 220.974 358.852 220.211C360.143 218.953 361.434 217.695 362.725 216.44L366.446 212.813L370.17 209.186C371.323 208.06 372.675 207.022 372.553 205.247C372.453 203.831 371.733 202.421 371.241 201.056C371.171 200.859 371.108 200.665 371.049 200.473C370.056 197.171 369.492 193.749 368.484 190.461ZM320.38 332.107C321.15 331.336 322.345 332.531 321.575 333.302L321.168 333.708C320.488 334.387 319.813 335.086 319.342 335.926L319.273 336.053C318.766 337.016 317.307 336.162 317.814 335.199C318.441 334.009 319.439 333.048 320.38 332.107ZM353.366 331.889C355.817 331.421 358.179 331.421 360.63 331.889C361.697 332.093 361.245 333.723 360.18 333.52C358.037 333.11 355.959 333.11 353.815 333.52C352.752 333.723 352.297 332.093 353.366 331.889ZM386.466 314.846C387.52 314.578 387.97 316.209 386.915 316.476L386.395 316.607C384.629 317.043 382.946 317.369 381.111 316.963C380.064 316.732 380.487 315.141 381.519 315.324L381.561 315.333C383.258 315.708 384.823 315.262 386.466 314.846ZM327.681 303.863C328.462 303.104 329.658 304.299 328.877 305.059C327.901 306.008 326.752 306.729 325.358 306.767C324.287 306.797 324.272 305.157 325.311 305.079L325.358 305.077C326.292 305.051 327.036 304.491 327.681 303.863ZM427.151 299.348C426.178 298.861 427.033 297.402 428.004 297.888L433.845 300.809C434.819 301.296 433.964 302.755 432.993 302.269L427.151 299.348ZM311.729 299.72C312.817 299.69 312.816 301.38 311.729 301.411C310.707 301.44 309.659 301.827 308.748 302.269C307.774 302.743 306.916 301.285 307.895 300.809C309.086 300.231 310.393 299.758 311.729 299.72ZM366.306 291.557C365.412 290.949 366.257 289.483 367.159 290.097C368.392 290.934 369.508 291.924 370.72 292.786L371.054 293.018C371.948 293.626 371.103 295.092 370.2 294.478C368.857 293.565 367.65 292.47 366.306 291.557ZM303.454 279.268C304.542 279.268 304.544 280.959 303.454 280.959L303.248 280.958C302.35 280.953 301.404 280.929 300.569 281.287L300.473 281.331C299.495 281.792 298.636 280.334 299.62 279.871C300.844 279.294 302.124 279.269 303.454 279.268ZM397.316 278.06L397.174 278.007C396.158 277.642 396.596 276.007 397.624 276.377C399.172 276.933 400.376 277.984 401.719 278.897C402.614 279.505 401.77 280.97 400.866 280.357C399.709 279.571 398.633 278.575 397.316 278.06ZM333.921 273.662L333.694 273.54C332.726 273.041 333.58 271.582 334.547 272.08C335.314 272.474 336 273 336.753 273.418L336.981 273.54C337.948 274.038 337.094 275.498 336.127 275C335.36 274.605 334.674 274.08 333.921 273.662ZM359.634 257.284L359.808 257.116C360.585 256.354 361.781 257.549 361.003 258.312C359.058 260.216 356.758 261.662 354.439 263.06L354.017 263.314C353.082 263.875 352.231 262.413 353.164 261.854L353.783 261.481C355.845 260.237 357.884 258.953 359.634 257.284ZM406.404 255.706C405.749 254.855 407.174 254.022 407.84 254.823L407.864 254.853C408.546 255.739 409.355 256.541 410.201 257.273L410.361 257.409C410.864 257.838 411.781 258.756 412.488 258.816C413.564 258.908 413.574 260.6 412.488 260.507C411.394 260.414 410.452 259.643 409.624 258.983C408.421 258.022 407.344 256.926 406.404 255.706ZM316.486 249.547C315.701 248.809 316.861 247.634 317.653 248.326L317.681 248.351C319.149 249.73 321.26 250.101 323.149 250.568C324.205 250.83 323.757 252.461 322.7 252.199L321.839 251.986C319.908 251.504 317.971 250.943 316.486 249.547ZM349.958 238.882C351.013 238.613 351.463 240.244 350.408 240.512C348.615 240.968 346.917 241.557 345.255 242.375C344.283 242.853 343.425 241.396 344.402 240.915C346.19 240.035 348.028 239.372 349.958 238.882ZM332.693 203.239C332.718 203.163 332.638 203.076 332.56 203.104C330.663 203.811 331.672 206.296 332.261 207.784L332.368 208.056C333.291 210.44 334.582 212.76 335.989 214.895C337.461 217.129 339.096 219.268 340.867 221.276C341.635 222.147 342.432 222.994 343.255 223.816L343.565 224.122C344.397 224.941 345.47 226.378 346.761 226.219C348.152 226.052 348.927 224.566 347.913 223.438C347.196 222.639 346.203 222.003 345.403 221.276C344.608 220.557 343.839 219.815 343.09 219.052C341.556 217.486 340.102 215.831 338.773 214.088C337.488 212.402 336.258 210.669 335.14 208.867L334.918 208.506C334.066 207.105 332.101 205.044 332.693 203.239ZM399.893 220.95C400.793 220.334 401.64 221.799 400.746 222.41C399.103 223.533 397.657 224.894 395.878 225.818C394.926 226.313 394.079 224.895 394.991 224.377L395.025 224.359C396.803 223.435 398.25 222.073 399.893 220.95Z" fill="#3D6B4F"/>
<path fill-rule="evenodd" clip-rule="evenodd" d="M362.128 114.516C330.106 112.94 315.656 135.495 314.721 145.569C314.072 152.563 318.203 160.623 318.203 166.872C318.203 170.061 314.299 176.909 316.116 181.558C320.161 191.906 328.726 203.389 339.64 203.389C350.554 203.389 364.758 206.409 376.818 189.135C377.949 187.514 392.262 178.302 393.652 169.549C397.115 147.745 384.977 115.64 362.128 114.516Z" fill="white"/>
<path fill-rule="evenodd" clip-rule="evenodd" d="M363.637 100.479C362.492 99.1686 360.559 98.6444 358.842 98.7459C356.347 98.8938 354.177 100.435 351.694 100.549C349.092 100.669 346.58 99.7667 343.97 100.185C342.371 100.443 340.787 101.185 339.762 102.436C336.213 101.419 332.359 102.766 330.099 105.706C327.31 105.272 324.276 107.12 323.423 109.808C319.88 109.922 316.535 112.769 316.14 116.337C314.724 116.711 313.495 117.687 312.741 118.978C311.864 120.475 311.718 122.191 311.877 123.878C310.21 124.729 309.363 126.56 309.141 128.496C307.618 129.633 306.956 131.676 307.267 133.606C306.101 134.263 305.498 135.793 305.505 137.159C305.511 138.433 305.849 139.562 305.374 140.792C304.95 141.887 304.798 142.8 305.031 143.948L305.055 144.059C305.096 144.246 305.131 144.426 305.162 144.603C304.846 144.88 304.58 145.227 304.379 145.63C303.649 147.106 303.758 148.788 304.315 150.284C304.071 151.237 304.102 152.244 304.462 153.159C303.787 154.133 303.432 155.326 303.536 156.565C303.653 157.951 304.286 159.193 305.246 160.111C304.99 162.005 305.76 164.052 307.152 165.385C306.955 166.519 307.125 167.708 307.745 168.783C308.187 169.549 308.782 170.12 309.469 170.517C309.446 171.15 309.532 171.797 309.742 172.445C310.034 173.345 310.529 174.173 311.18 174.841C310.792 177.326 312.279 180.083 314.897 180.78C315.117 180.839 315.326 180.866 315.527 180.87C315.787 183.26 316.355 185.617 317.235 187.856C319.47 193.556 323.535 198.539 328.835 201.648C331.457 203.185 334.402 204.237 337.408 204.677C339.572 204.994 341.653 204.916 343.824 204.7C346.55 204.427 349.288 204.019 351.937 203.318L352.363 203.204C353.462 202.91 354.62 202.571 355.571 201.978C356.636 201.314 357.189 200.291 357.434 199.087C357.571 198.416 357.147 197.695 356.413 197.681L356.366 197.681C356.205 197.684 356.046 197.678 355.885 197.668L355.763 197.66H355.757C355.749 197.658 355.744 197.658 355.736 197.658C355.664 197.647 355.594 197.626 355.525 197.616C354.717 197.48 354.012 197.614 353.254 197.867L353.158 197.899C351.882 198.338 350.617 198.746 349.299 199.049C347.936 199.359 346.556 199.606 345.173 199.801L345.035 199.818L344.993 199.824L344.972 199.826C344.968 199.826 344.963 199.826 344.959 199.828L344.551 199.879C344.23 199.917 343.909 199.951 343.588 199.985C342.997 200.044 342.405 200.09 341.813 200.124C331.603 200.699 323.027 192.657 320.439 183.015C319.501 179.526 319.44 176.045 319.717 172.562C319.806 172.308 319.858 172.027 319.856 171.719C319.856 171.558 319.848 171.4 319.837 171.239C320.182 167.87 320.779 164.499 321.154 161.117C321.591 157.167 321.834 153.194 321.745 149.218C321.701 147.255 321.492 145.311 321.217 143.366L321.118 142.668C322.359 142.425 323.513 141.837 324.432 140.984C326.426 142.136 329.006 142.238 330.974 141.022C333.18 142.406 336.262 142.531 338.483 141.178C339.825 142.137 341.516 142.551 343.177 142.187C343.924 142.023 344.666 141.669 345.302 141.179C345.756 141.259 346.216 141.29 346.673 141.266L346.768 141.319C347.822 141.875 348.99 142.241 350.192 142.2C351.082 142.17 351.998 141.994 352.847 141.662C353.754 142.209 354.746 142.583 355.807 142.717C357.357 142.913 359.03 142.57 360.319 141.69C362.675 143.032 365.573 143.239 368.116 142.337C368.636 143.219 369.357 143.98 370.201 144.567C370.05 145.108 370.002 145.686 370.054 146.241C370.139 147.155 370.368 147.974 370.742 148.71C370.348 149.532 370.229 150.541 370.45 151.554C370.765 152.998 371.605 154.255 372.692 155.233C372.788 157.538 374.052 159.699 376.108 160.9C376.213 160.961 376.316 161.01 376.419 161.055C376.51 161.179 376.619 161.288 376.743 161.38C378.051 162.589 380.12 162.493 381.759 161.81C381.791 161.812 381.823 161.814 381.855 161.815C382.44 161.83 382.839 161.601 383.076 161.265C383.315 161.278 383.551 161.303 383.79 161.348C384.661 161.511 385.616 161.823 386.404 162.229C388.449 163.282 389.395 165.142 389.678 167.378C389.986 169.817 389.285 172.302 387.398 173.953C386.482 174.756 385.309 175.259 384.118 175.47C382.801 175.705 381.394 175.128 380.423 176.259C380.228 176.483 380.095 176.795 380.201 177.098C380.53 178.04 381.073 178.402 381.923 178.533C380.695 179.989 379.436 181.397 378.042 182.705C376.533 184.123 374.974 185.497 373.613 187.061C372.175 188.716 370.875 190.47 369.973 192.478C369.458 193.632 369.044 194.822 368.598 196.003L368.518 196.209C368.021 197.464 367.359 198.674 368.125 199.985C368.429 200.5 369.118 200.999 369.751 200.917C371.536 200.689 372.134 199.482 372.684 197.909C373.098 196.722 373.415 195.5 373.86 194.323C373.944 194.105 374.035 193.889 374.13 193.675C375.159 193.962 376.291 193.734 377.21 193.147C378.191 193.582 379.279 193.799 380.329 193.78C381.735 193.756 383.02 193.365 384.124 192.66C384.212 192.637 384.3 192.614 384.388 192.589C386.068 193.233 388.036 193.118 389.557 192.075C390.542 191.399 391.216 190.497 391.599 189.493C392.872 189.469 394.131 189.017 395.043 188.114C395.88 187.285 396.37 186.214 396.515 185.103C397.611 184.886 398.638 184.356 399.444 183.463C400.116 182.718 400.525 181.768 400.663 180.783C401.998 180.402 403.201 179.53 403.858 178.315C404.47 177.183 404.558 175.956 404.259 174.84L404.337 174.728C405.711 174.009 406.76 172.831 406.868 171.148C406.898 170.669 406.847 170.189 406.717 169.736C406.764 169.229 406.734 168.722 406.601 168.232C408.449 166.433 409.119 163.544 408.116 161.156C409.922 159.211 410.399 156.136 409.075 153.828C409.983 152.729 410.45 151.328 410.372 149.831C410.275 147.963 409.419 146.331 408.394 144.82C409.155 143.979 409.561 142.806 409.531 141.673C409.489 140.031 408.616 138.617 407.524 137.446C408.477 134.555 407.412 131.419 405.073 129.588C405.547 128.808 405.722 127.842 405.567 126.864C405.297 125.154 404.015 123.99 402.631 123.068C402.92 122.126 402.844 121.109 402.384 120.135C401.769 118.835 400.609 118.01 399.399 117.313C399.086 114.43 395.866 111.968 393.166 113.456C393.836 111.311 391.907 108.994 389.689 108.749C388.603 105.456 384.857 103.381 381.489 104.199C379.768 101.844 376.563 100.938 373.842 101.948C370.85 99.6547 367.138 99.3144 363.637 100.479ZM384.948 165.133C382.846 165.019 381.27 166.735 380.162 168.306C379.123 169.779 381.789 171.334 382.567 169.711C382.846 169.132 383.163 168.519 383.587 168.012C383.659 168.112 383.722 168.215 383.784 168.321L383.847 168.428C383.894 168.506 383.942 168.587 383.982 168.669C383.978 168.684 384.042 168.878 384.044 168.887C384.217 169.413 384.595 169.751 385.11 169.933C385.776 170.165 386.406 169.665 386.619 169.077C386.959 168.139 386.169 167.321 385.347 166.949C386.154 166.818 386.949 167.092 387.532 167.714C387.612 167.8 387.747 167.731 387.751 167.623C387.819 166.15 386.279 165.205 384.948 165.133Z" fill="black"/>
<path fill-rule="evenodd" clip-rule="evenodd" d="M338.848 187.274C340.268 186.694 341.535 185.728 342.462 184.493C342.784 184.063 342.867 183.61 342.8 183.195C342.724 182.729 342.448 182.306 342.072 182.023C341.695 181.739 341.223 181.598 340.767 181.67C340.37 181.732 339.976 181.949 339.663 182.399L339.598 182.489C339.047 183.235 338.33 183.846 337.512 184.241C336.724 184.621 335.842 184.798 334.93 184.695C333.192 184.498 331.995 183.558 330.722 182.282C330.564 182.121 330.406 181.955 330.248 181.786C330.148 181.633 330.009 181.534 329.854 181.483C329.683 181.425 329.489 181.429 329.311 181.491C329.14 181.55 328.987 181.664 328.884 181.814C328.787 181.958 328.731 182.135 328.749 182.339C328.866 183.661 329.557 184.842 330.539 185.769C331.63 186.799 333.076 187.511 334.437 187.761C335.936 188.036 337.464 187.839 338.848 187.274ZM333.729 166.866C332.134 167.836 329.703 170.098 331.419 172.503C333.44 174.624 336.348 172.193 337.781 171.093C339.111 170.241 340.604 172.433 339.371 173.428C329.014 181.099 324.81 167.12 332.922 165.726C333.816 165.572 334.147 166.566 333.729 166.866ZM352.289 157.943C352.113 155.754 348.781 155.257 348.449 157.423C348.153 159.363 348.502 161.145 349.376 162.892C350.21 164.561 352.308 163.782 352.467 162.263C352.68 160.226 352.399 159.304 352.289 157.943ZM326.924 156.974C326.459 156.365 325.789 155.95 324.985 156.184C322.474 156.918 323.214 160.485 324.096 162.22C324.575 163.163 326.124 163.402 326.824 162.572C327.965 161.219 328.511 158.516 327.061 157.182C327.021 157.114 326.978 157.044 326.924 156.974ZM349.411 148.365L349.014 148.296C347.787 148.084 346.262 147.88 345.394 148.866C344.933 149.39 344.775 150.362 345.394 150.863C346.482 151.745 347.686 151.403 348.99 151.478C350.065 151.539 351.098 151.717 352.133 152.013C354.405 152.663 356.256 153.849 358.196 155.15C358.45 155.321 358.71 154.996 358.589 154.757C357.469 152.563 355.299 150.76 353.125 149.662C351.964 149.075 350.695 148.588 349.411 148.365ZM329.213 147.382L328.909 147.444C325.606 148.135 321.313 149.515 319.749 152.761C319.689 153.22 319.752 153.319 319.803 153.383L319.821 153.405C319.863 153.459 319.896 153.535 320.095 153.598C320.151 153.584 320.206 153.57 320.263 153.556C320.98 153.368 321.547 153.109 322.096 152.84L322.692 152.546C323.383 152.207 324.08 151.881 324.819 151.64C326.395 151.125 328.017 150.763 329.663 150.57C330.02 150.528 330.364 150.407 330.635 150.201C330.893 150.005 331.089 149.733 331.179 149.372C331.295 148.905 331.262 148.552 331.011 148.131C330.823 147.815 330.553 147.595 330.244 147.469C329.929 147.341 329.57 147.311 329.213 147.382Z" fill="black"/>
<path fill-rule="evenodd" clip-rule="evenodd" d="M325 192.092C325.738 191.851 326.462 191.57 327.19 191.299C330.91 189.43 335.404 189.091 339.305 190.665C341.22 191.438 343.006 192.826 344.927 193.736C345.383 193.906 345.844 194.061 346.309 194.191C346.594 194.091 346.879 193.986 347.162 193.88C349.2 193.112 351.117 192.164 352.979 191.121C353.177 190.841 353.383 190.57 353.605 190.309C352.258 190.117 350.939 189.799 349.746 189.471C346.083 188.467 342.631 186.832 338.98 185.783C335.581 184.805 331.892 184.27 328.478 185.485C326.857 186.062 325.431 187.073 323.855 187.753C323.04 188.104 322.062 188.448 321.109 188.499C321.724 189.972 322.501 191.348 323.564 192.494C324.05 192.39 324.531 192.244 325 192.092ZM317.073 180.554C317.4 180.825 318.746 181.7 319.182 182.222C319.295 182.179 319.407 182.135 319.519 182.09C319.711 181.854 319.994 181.75 320.282 181.757C322.295 180.82 324.088 179.496 325.687 177.837C326.824 176.659 327.988 175.427 329.507 174.744C331.296 173.937 333.056 174.309 334.936 174.432C336.937 174.565 338.912 173.996 340.911 174.269C342.373 174.47 343.742 175.089 344.925 175.962C347.34 177.744 349.005 180.246 351.045 182.404C353.361 184.851 356.209 186.415 359.376 187.214C359.414 187.189 359.454 187.163 359.494 187.14C361.829 185.027 363.937 182.641 365.802 180.098C367.624 177.615 372.426 166.436 373.586 165.456C374.067 165.048 374.595 164.872 375.1 164.887C376.015 164.908 376.86 165.544 377.238 166.546C377.881 168.25 377.56 170.452 377.509 172.234C377.445 174.415 377.302 176.594 377.074 178.764C376.848 180.91 376.548 183.048 376.174 185.172C375.986 186.246 375.776 187.318 375.546 188.385C375.474 188.721 375.383 189.021 375.274 189.3C375.162 189.826 375.041 190.351 374.912 190.87C374.071 194.275 372.745 197.684 370.212 200.197C367.575 202.816 363.992 204.555 360.664 206.111C357.495 207.593 354.174 208.909 350.767 209.941C347.807 211.283 344.638 212.344 341.456 212.902C337.953 213.517 334.271 213.555 330.888 212.337C329.226 211.739 327.654 210.904 326.228 209.865C324.206 208.814 322.387 207.371 320.898 205.46C318.23 202.036 316.957 197.881 316.399 193.596C316.257 192.499 315.721 188.296 315.678 187.641C315.542 185.528 315.406 183.415 315.27 181.301C315.206 180.304 316.429 180.019 317.073 180.554Z" fill="black"/>
<path d="M327 209L321.5 226L333.5 222L344.5 228" stroke="black" stroke-width="3" stroke-linecap="round"/>
<path d="M354.5 225.5C355.5 224.167 358.4 222 362 224C365.6 226 373.5 231.167 377 233.5L378.5 207L369 199" stroke="black" stroke-width="3" stroke-linecap="round"/>
<path d="M344.356 226.138C344.984 227.047 346.23 227.273 347.138 226.644C348.047 226.016 348.273 224.77 347.644 223.862L346 225L344.356 226.138ZM337 212L335.356 213.138L344.356 226.138L346 225L347.644 223.862L338.644 210.862L337 212Z" fill="black"/>
<path d="M354.5 222.5L371 205.5L369 199" stroke="black" stroke-width="3" stroke-linecap="round"/>
<path d="M188.094 76.8492L181.802 89.8994L182.77 99.0829L186.158 107.3L197.773 117.45L209.873 122.283L218.584 124.217L230.199 122.283L239.879 119.867V124.217L236.007 134.367L244.235 124.217L247.139 116.483L256.818 113.1L264.078 105.85L268.433 98.1162V86.9994L265.046 75.8825L257.786 69.5991L249.074 66.2157L234.071 61.3823L213.744 62.349L198.257 67.1824L188.094 76.8492Z" fill="white" stroke="white"/>
<path d="M217.5 124.884C224.334 125.493 231.429 124.458 238.146 121.877C237.991 123.627 237.653 125.357 237.14 127.039C235.978 130.809 234.033 133.381 232.987 134.773C232.329 135.643 231.438 136.822 232.561 137.789C232.832 138.021 233.229 138.147 233.597 138.147C233.665 138.147 233.732 138.147 233.8 138.137C235.378 137.905 240.179 133.216 243.518 128.074C245.561 124.932 247.187 121.5 248.358 117.875C257.912 115.768 265.723 108.953 268.869 99.9046C271.773 91.5718 270.389 82.0017 265.268 74.9352C261.29 69.4445 256.14 67.1148 251.156 64.8527C244.148 61.682 236.027 60 227.644 60C227.596 60 227.547 60 227.499 60C218.507 60.029 197.464 60.0773 186.506 75.5539C184.067 78.9953 178.647 88.1498 180.863 98.8316C184.406 115.865 204.713 123.743 217.5 124.884ZM188.878 77.2263C198.974 62.9677 218.962 62.9194 227.499 62.9C227.547 62.9 227.586 62.9 227.634 62.9C235.601 62.9 243.315 64.4854 249.946 67.4918C254.805 69.6861 259.383 71.7645 262.906 76.6366C267.485 82.9587 268.714 91.5041 266.12 98.9573C263.216 107.29 255.879 113.515 246.955 115.207C246.422 115.304 245.987 115.691 245.832 116.213C244.719 119.886 243.122 123.347 241.07 126.498C240.634 127.175 240.189 127.813 239.734 128.422C239.792 128.248 239.85 128.074 239.908 127.89C240.721 125.232 241.137 122.467 241.137 119.673C241.137 119.18 240.886 118.726 240.479 118.455C240.237 118.301 239.966 118.223 239.685 118.223C239.492 118.223 239.289 118.262 239.105 118.349C232.213 121.365 224.837 122.622 217.752 121.993C205.836 120.93 186.932 113.728 183.709 98.2419C181.725 88.6814 186.661 80.3583 188.878 77.2263Z" fill="white"/>
<path d="M202.254 98.1855C201.622 98.1855 200.929 98.1009 200.174 97.9316C199.419 97.7624 198.771 97.528 198.23 97.2285L198.123 93.9082L199.598 93.8203L200.34 96.1348C200.633 96.3236 200.978 96.4733 201.375 96.584C201.772 96.6947 202.16 96.75 202.537 96.75C203.195 96.75 203.693 96.6133 204.031 96.3398C204.376 96.0599 204.549 95.6855 204.549 95.2168C204.549 94.7155 204.396 94.3086 204.09 93.9961C203.784 93.6836 203.387 93.4199 202.898 93.2051C202.417 92.9902 201.902 92.7754 201.355 92.5605C200.815 92.3457 200.301 92.0885 199.812 91.7891C199.331 91.4896 198.937 91.099 198.631 90.6172C198.325 90.1354 198.172 89.5169 198.172 88.7617C198.172 87.9609 198.4 87.2578 198.855 86.6523C199.311 86.0404 199.949 85.5651 200.77 85.2266C201.596 84.888 202.56 84.7188 203.66 84.7188C204.174 84.7188 204.741 84.7773 205.359 84.8945C205.978 85.0117 206.492 85.1615 206.902 85.3438L207.186 88.625L205.73 88.7129L205.018 86.4863C204.783 86.3822 204.536 86.3008 204.275 86.2422C204.021 86.1836 203.742 86.1543 203.436 86.1543C202.863 86.1543 202.378 86.3073 201.98 86.6133C201.583 86.9128 201.385 87.3327 201.385 87.873C201.385 88.3548 201.541 88.752 201.854 89.0645C202.166 89.377 202.57 89.6471 203.064 89.875C203.559 90.1029 204.08 90.3307 204.627 90.5586C205.18 90.7799 205.704 91.0404 206.199 91.3398C206.694 91.6393 207.098 92.0202 207.41 92.4824C207.723 92.9447 207.879 93.5306 207.879 94.2402C207.879 95.002 207.645 95.6823 207.176 96.2812C206.707 96.8737 206.049 97.3392 205.203 97.6777C204.363 98.0163 203.38 98.1855 202.254 98.1855ZM212.664 98.1562C211.974 98.1562 211.382 98.013 210.887 97.7266C210.392 97.4336 210.011 97.0788 209.744 96.6621C209.484 96.2454 209.354 95.8516 209.354 95.4805C209.354 94.4062 210.04 93.6706 211.414 93.2734L214.91 92.2578V91.4961C214.91 91.1836 214.809 90.8906 214.607 90.6172C214.406 90.3372 214.142 90.1126 213.816 89.9434C213.497 89.7676 213.159 89.6797 212.801 89.6797C212.566 89.6797 212.4 89.7383 212.303 89.8555C212.205 89.9661 212.15 90.1712 212.137 90.4707L212.01 91.8672C211.268 92.0104 210.656 91.9844 210.174 91.7891C209.692 91.5872 209.451 91.252 209.451 90.7832C209.451 90.4902 209.601 90.194 209.9 89.8945C210.2 89.5951 210.574 89.3151 211.023 89.0547C211.473 88.7878 211.928 88.5664 212.391 88.3906C212.859 88.2083 213.26 88.0944 213.592 88.0488C214.933 88.0488 215.994 88.3516 216.775 88.957C217.557 89.556 217.947 90.3665 217.947 91.3887L217.879 94.4258C217.879 94.8424 217.892 95.168 217.918 95.4023C217.944 95.6302 217.99 95.8158 218.055 95.959L219.529 96.2324V97.209L218.035 97.8438C217.768 97.9349 217.521 98.0098 217.293 98.0684C217.065 98.127 216.844 98.1562 216.629 98.1562C216.03 98.1562 215.62 97.8665 215.398 97.2871L214.998 96.2617L215.457 96.3594C215.008 96.9323 214.539 97.375 214.051 97.6875C213.569 98 213.107 98.1562 212.664 98.1562ZM213.846 96.1543C214.243 96.1543 214.601 95.9948 214.92 95.6758V93.5273L213.494 93.7812C213.123 93.8268 212.859 93.9375 212.703 94.1133C212.547 94.2891 212.469 94.5137 212.469 94.7871C212.469 95.1257 212.605 95.4382 212.879 95.7246C213.152 96.0111 213.475 96.1543 213.846 96.1543ZM219.988 98L219.93 96.9355L221.365 96.5938C221.385 96.418 221.404 96.1217 221.424 95.7051C221.45 95.2819 221.469 94.8132 221.482 94.2988C221.502 93.778 221.512 93.2865 221.512 92.8242V90.0117C221.512 89.3281 221.505 88.6543 221.492 87.9902C221.486 87.3262 221.469 86.7207 221.443 86.1738C221.424 85.6204 221.398 85.1745 221.365 84.8359L219.734 84.6211L219.695 83.6348L224.021 82.5117L224.656 82.9121C224.624 83.5241 224.598 84.123 224.578 84.709C224.565 85.2884 224.555 85.9492 224.549 86.6914C224.542 87.4271 224.536 88.3353 224.529 89.416L224.52 92.6387C224.52 93.6868 224.526 94.569 224.539 95.2852C224.552 95.9948 224.572 96.431 224.598 96.5938L226.053 96.9355L226.004 98H219.988ZM237.635 95.9785L239.1 96.291V97.2578L235.262 98.2832L234.646 97.9707L234.656 96.3887L234.598 96.3594C234.181 97.069 233.719 97.554 233.211 97.8145C232.703 98.0749 232.179 98.2051 231.639 98.2051C230.564 98.2051 229.695 97.873 229.031 97.209C228.367 96.5384 228.035 95.5358 228.035 94.2012V92.3066C228.035 91.9616 228.025 91.6361 228.006 91.3301C227.993 91.0241 227.97 90.7311 227.938 90.4512L226.414 90.1387V89.123L230.486 88.0977L231.15 88.498C231.118 88.9342 231.089 89.4681 231.062 90.0996C231.036 90.7311 231.023 91.3724 231.023 92.0234L231.004 93.8398C231.004 94.6016 231.17 95.1582 231.502 95.5098C231.84 95.8613 232.303 96.0371 232.889 96.0371C233.175 96.0371 233.471 95.959 233.777 95.8027C234.09 95.6465 234.357 95.3893 234.578 95.0312V92.9902C234.578 92.4108 234.568 91.9486 234.549 91.6035C234.536 91.252 234.51 90.8678 234.471 90.4512L232.918 90.1387V89.123L236.971 88.0977L237.586 88.4785C237.553 88.8236 237.534 89.2598 237.527 89.7871C237.521 90.3079 237.518 90.985 237.518 91.8184V93.6055C237.518 93.9245 237.524 94.276 237.537 94.6602C237.557 95.0378 237.589 95.4772 237.635 95.9785ZM247.664 96.1152C247.436 96.7663 247.026 97.2773 246.434 97.6484C245.841 98.0195 245.18 98.2051 244.451 98.2051C243.41 98.2051 242.557 97.9089 241.893 97.3164C241.229 96.724 240.896 95.8223 240.896 94.6113L240.955 89.6797H239.402V88.9863L243.318 85.9199H243.992L243.943 89.0938L243.895 94.3477C243.895 94.9596 244.044 95.3958 244.344 95.6562C244.643 95.9102 245.06 96.0371 245.594 96.0371C246.134 96.0371 246.635 95.8418 247.098 95.4512L247.664 96.1152ZM242.889 89.6797V88.2539H247.059V89.6797H242.889ZM250.037 92.9219L248.914 85.8809C248.758 84.8913 248.849 84.0807 249.188 83.4492C249.526 82.8177 250.021 82.502 250.672 82.502C251.329 82.502 251.831 82.8177 252.176 83.4492C252.521 84.0807 252.615 84.8913 252.459 85.8809L251.336 92.9219H250.037ZM250.701 98.2051C250.219 98.2051 249.803 98.0456 249.451 97.7266C249.1 97.401 248.924 96.9909 248.924 96.4961C248.924 96.0078 249.1 95.5977 249.451 95.2656C249.803 94.9271 250.219 94.7578 250.701 94.7578C251.189 94.7578 251.603 94.9271 251.941 95.2656C252.286 95.5977 252.459 96.0078 252.459 96.4961C252.459 96.9909 252.286 97.401 251.941 97.7266C251.603 98.0456 251.189 98.2051 250.701 98.2051Z" fill="#1C1917"/>
</svg>
